# AST/ASF file generated using VICON BodyLanguage
# -----------------------------------------------
:version 1.10
:name VICON
:units
  mass 1.0
  length 0.45
  angle deg
:documentation
   .ast/.asf automatically generated from VICON data using
   VICON BodyBuilder and BodyLanguage model FoxedUp or BRILLIANT.MOD
:root
   order TX TY TZ RX RY RZ
   axis XYZ
   position 0 0 0  
   orientation 0 0 0 
:bonedata
  begin
     id 1 
     name lhipjoint
     direction 0.660183 -0.676772 0.325788 
     length 2.75133 
     axis 0 0 0  XYZ
  end
  begin
     id 2 
     name lfemur
     direction 0.34202 -0.939693 0  
     length 7.70317  
     axis 0 0 20  XYZ
    dof rx ry rz
    limits (-160.0 20.0)
           (-70.0 70.0)
           (-60.0 70.0)
  end
  begin
     id 3 
     name ltibia
     direction 0.342105 -0.939662 0   
     length 7.18701   
     axis 0 0 20   XYZ
    dof rx
    limits (-10.0 170.0)
  end
  begin
     id 4 
     name lfoot
     direction 0.14163 -0.389126 0.910232   
     length 2.41719   
     axis -90 7.62852e-016 20   XYZ
    dof rx rz
    limits (-45.0 90.0)
           (-70.0 20.0)
  end
  begin
     id 5 
     name ltoes
     direction 1.53533e-011 -4.21926e-011 1   
     length 1.18611   
     axis -90 7.62852e-016 20   XYZ
    dof rx
    limits (-90.0 20.0)
  end
  begin
     id 6 
     name rhipjoint
     direction -0.6658 -0.67229 0.323631   
     length 2.76968  
     axis 0 0 0  XYZ 
  end
  begin
     id 7 
     name rfemur
     direction -0.34202 -0.939693 0   
     length 7.92547   
     axis 0 0 -20   XYZ
    dof rx ry rz
    limits (-160.0 20.0)
           (-70.0 70.0)
           (-70.0 60.0)
  end
  begin
     id 8 
     name rtibia
     direction -0.342022 -0.939692 0   
     length 7.22641   
     axis 0 0 -20   XYZ
    dof rx
    limits (-10.0 170.0)
 end
 begin
     id 9 
     name rfoot
     direction -0.105675 -0.29034 0.951071   
     length 2.48149  
     axis -90 -7.62852e-016 -20   XYZ
    dof rx rz
    limits (-45.0 90.0)
           (-20.0 70.0)
  end
  begin
     id 10 
     name rtoes
     direction -1.5349e-011 -4.21859e-011 1   
     length 1.23343   
     axis -90 -7.62852e-016 -20   XYZ
    dof rx
    limits (-90.0 20.0)
  end
  begin
     id 11 
     name lowerback
     direction 0.0104173 0.993624 -0.112266   
     length 2.00527   
     axis 0 0 0   XYZ
    dof rx ry rz
    limits (-20.0 45.0)
           (-30.0 30.0)
           (-30.0 30.0)
  end
  begin
     id 12 
     name upperback
     direction 0.00733149 0.999856 -0.0152913   
     length 2.01385   
     axis 0 0 0   XYZ
    dof rx ry rz
    limits (-20.0 45.0)
           (-30.0 30.0)
           (-30.0 30.0)
  end
  begin
     id 13 
     name thorax
     direction 0.0026304 0.999318 0.036841   
     length 2.03734   
     axis 0 0 0   XYZ
    dof rx ry rz
    limits (-20.0 45.0)
           (-30.0 30.0)
           (-30.0 30.0)
  end
  begin
     id 14 
     name lowerneck
     direction 0.0293154 0.998757 0.0403082   
     length 1.65303   
     axis 0 0 0   XYZ
    dof rx ry rz
    limits (-20.0 45.0)
           (-30.0 30.0)
           (-30.0 30.0)
  end
  begin
     id 15 
     name upperneck
     direction -0.0376619 0.998184 -0.0470083   
     length 1.60926   
     axis 0 0 0   XYZ
    dof rx ry rz
    limits (-20.0 45.0)
           (-30.0 30.0)
           (-30.0 30.0)
  end
  begin
     id 16
     name head
     direction -0.0170133 0.999635 -0.0209778  
     length 1.73625  
     axis 0 0 0   XYZ
    dof rx ry rz
    limits (-20.0 45.0)
           (-30.0 30.0)
           (-30.0 30.0)
  end
  begin
     id 17 
     name lclavicle
     direction 0.919857 0.39181 -0.0186333  
     length 3.75313  
     axis 0 0 0   XYZ
    dof ry rz
    limits (-20.0 10.0)
           (0.0 20.0)
  end
  begin
     id 18 
     name lhumerus
     direction 1 -4.48988e-011 1.44029e-027   
     length 5.49313   
     axis 180 -30 -90   XYZ
    dof rx ry rz
    limits (-60.0 90.0)
           (-90.0 90.0)
           (-90.0 90.0)
  end
  begin
     id 19
     name lradius
     direction 1 -4.48924e-011 7.46281e-027   
     length 3.29037   
     axis 180 -30 -90   XYZ
    dof rx
    limits (-10.0 170.0)
  end
  begin
     id 20
     name lwrist
     direction 1 -4.48955e-011 2.19879e-026   
     length 1.64519   
     axis -1.34358e-014 90 90   XYZ
    dof ry
    limits (-180.0 0.0)
 end
  begin
     id 21 
     name lhand
     direction 1 -4.48978e-011 4.39747e-026   
     length 0.729656   
     axis -2.80598e-014 90 90   XYZ
    dof rx rz
    limits (-90.0 90.0)
           (-45.0 45.0)
  end
  begin
     id 22 
     name lfingers
     direction 1 -4.49071e-011 8.79411e-026   
     length 0.588268   
     axis -5.61193e-014 90 90   XYZ
    dof rx
    limits (0.0 90.0)
  end
  begin
     id 23
     name lthumb
     direction 0.707107 -6.34817e-011 0.707107   
     length 0.844638   
     axis -90 45 -9.86923e-015   XYZ
    dof rx rz
    limits (-45.0 45.0)
           (-45.0 45.0)
  end
  begin
     id 24 
     name rclavicle
     direction -0.919898 0.388279 0.0550233   
     length 3.7171  
     axis 0 0 0   XYZ 
    dof ry rz
    limits (-10.0 20.0)
           (-20.0 0.0)
  end
  begin
     id 25 
     name rhumerus
     direction -1 -4.48968e-011 9.98372e-028  
     length 5.23684   
     axis 180 30 90   XYZ
    dof rx ry rz
    limits (-90.0 60.0)
           (-90.0 90.0)
           (-90.0 90.0)
  end
  begin
     id 26 
     name rradius
     direction -1 -4.48956e-011 1.01023e-026   
     length 3.38251   
     axis 180 30 90   XYZ
    dof rx
    limits (-10.0 170.0)
  end
  begin
     id 27 
     name rwrist
     direction -1 -4.4892e-011 2.19886e-026   
     length 1.69126   
     axis -1.34358e-014 -90 -90   XYZ
    dof ry
    limits (-180.0 0.0)
  end
  begin
     id 28
     name rhand
     direction -1 -4.49024e-011 4.39727e-026   
     length 0.691454   
     axis -2.80598e-014 -90 -90   XYZ
    dof rx rz
    limits (-90.0 90.0)
           (-45.0 45.0)
  end
  begin
     id 29
     name rfingers
     direction -1 -4.49097e-011 8.79388e-026   
     length 0.557468   
     axis -5.61193e-014 -90 -90   XYZ
    dof rx
    limits (0.0 90.0)
  end
  begin
     id 30
     name rthumb
     direction -0.707107 -6.34938e-011 0.707107   
     length 0.800416   
     axis -90 -45 9.86923e-015   XYZ
    dof rx rz
    limits (-45.0 45.0)
           (-45.0 45.0)
  end
:hierarchy
  begin
    root lhipjoint rhipjoint lowerback
    lhipjoint lfemur
    lfemur ltibia
    ltibia lfoot
    lfoot ltoes
    rhipjoint rfemur
    rfemur rtibia
    rtibia rfoot
    rfoot rtoes
    lowerback upperback
    upperback thorax
    thorax lowerneck lclavicle rclavicle
    lowerneck upperneck
    upperneck head
    lclavicle lhumerus
    lhumerus lradius
    lradius lwrist
    lwrist lhand lthumb
    lhand lfingers
    rclavicle rhumerus
    rhumerus rradius
    rradius rwrist
    rwrist rhand rthumb
    rhand rfingers
  end

#!OML:ASF H:\BabyWalks\Project 1\Capture day 1\Session 1\baby.ASF
:FULLY-SPECIFIED
:DEGREES
270
root -33.6338 17.651 -0.977732 48.3168 87.2823 53.6555
lowerback 9.67661 -2.35963 4.88838
upperback 4.05438 -2.30746 5.19979
thorax -1.1824 -1.02475 2.89663
lowerneck -3.67447 4.07135 -0.11749
upperneck 0.480591 5.9572 -12.7828
head 1.24047 2.93139 -4.01856
rclavicle -1.59028e-015 7.95139e-015
rhumerus -98.153 68.5326 -130.339
rradius 84.6756
rwrist 12.0168
rhand -26.5815 12.2322
rfingers 7.12502
rthumb -0.0159141 -17.7476
lclavicle -1.59028e-015 7.95139e-015
lhumerus -71.7124 -56.4324 118.337
lradius 78.4353
lwrist -2.69422
lhand -13.4064 -15.7919
lfingers 7.12502
lthumb 12.7015 13.8019
rfemur 0.524866 5.6947 12.6212
rtibia 23.231
rfoot -16.6894 -17.4346
rtoes -8.3476
lfemur 3.7409 -4.27833 -15.9508
ltibia 15.4194
lfoot -14.3881 10.897
ltoes -0.65625
271
root -33.637 17.6568 -0.914996 41.3402 87.9171 46.5974
lowerback 9.62464 -2.21318 4.65151
upperback 4.06726 -2.15614 4.99905
thorax -1.14249 -0.954709 2.79978
lowerneck -3.72916 3.9658 -0.177433
upperneck 0.57575 5.76979 -11.8469
head 1.22629 2.82848 -3.67999
rclavicle -1.59028e-015 -4.13472e-014
rhumerus -98.0715 68.3104 -130.484
rradius 84.3299
rwrist 12.1163
rhand -26.8778 12.1791
rfingers 7.12502
rthumb -0.302074 -17.8004
lclavicle -1.59028e-015 -4.13472e-014
lhumerus -71.9003 -56.7333 118.285
lradius 78.6776
lwrist -2.66899
lhand -13.4718 -15.7318
lfingers 7.12502
lthumb 12.6384 13.8659
rfemur 0.806763 5.50308 13.5953
rtibia 22.5769
rfoot -16.4048 -17.5412
rtoes -8.09152
lfemur 3.39948 -4.82622 -15.0544
ltibia 15.9027
lfoot -14.6793 11.2065
ltoes -0.456604
272
root -33.6396 17.6613 -0.85174 28.4374 88.4914 33.6123
lowerback 9.56589 -2.06446 4.39865
upperback 4.08067 -2.00295 4.79771
thorax -1.09789 -0.883778 2.71151
lowerneck -3.77736 3.85576 -0.228951
upperneck 0.670027 5.57642 -10.8903
head 1.21228 2.7247 -3.3415
rclavicle -5.22804e-014 1.27222e-014
rhumerus -97.9496 68.085 -130.596
rradius 83.9719
rwrist 12.2016
rhand -27.1328 12.1811
rfingers 7.12502
rthumb -0.548382 -17.798
lclavicle -5.22804e-014 1.27222e-014
lhumerus -72.0895 -57.0277 118.232
lradius 78.9302
lwrist -2.63058
lhand -13.607 -15.6739
lfingers 7.12502
lthumb 12.5081 13.9317
rfemur 1.08801 5.30432 14.5709
rtibia 21.9116
rfoot -16.1077 -17.6327
rtoes -7.82973
lfemur 3.0504 -5.37301 -14.1493
ltibia 16.3983
lfoot -14.9993 11.514
ltoes -0.175049
273
root -33.6415 17.665 -0.788175 3.38208 88.9056 8.47423
lowerback 9.49872 -1.91476 4.1259
upperback 4.09409 -1.85005 4.59379
thorax -1.04829 -0.813106 2.63218
lowerneck -3.82177 3.74099 -0.273985
upperneck 0.766032 5.37733 -9.91102
head 1.19975 2.62005 -3.00193
rclavicle -2.24627e-014 4.92986e-014
rhumerus -97.7746 67.8523 -130.659
rradius 83.6054
rwrist 12.2735
rhand -27.4154 12.1784
rfingers 7.12502
rthumb -0.821277 -17.7997
lclavicle -2.24627e-014 4.92986e-014
lhumerus -72.2817 -57.32 118.181
lradius 79.1921
lwrist -2.58073
lhand -13.6766 -15.5926
lfingers 7.12502
lthumb 12.4409 14.0172
rfemur 1.36943 5.09216 15.5368
rtibia 21.2347
rfoot -15.8023 -17.6982
rtoes -7.53807
lfemur 2.69682 -5.91106 -13.2427
ltibia 16.8989
lfoot -15.3164 11.8168
ltoes 0.0233356
274
root -33.6426 17.668 -0.724375 -34.7112 88.952 -29.7014
lowerback 9.42541 -1.76555 3.84515
upperback 4.10578 -1.69759 4.39129
thorax -0.997062 -0.742623 2.55949
lowerneck -3.85198 3.62043 -0.320222
upperneck 0.855123 5.17049 -8.9048
head 1.18377 2.51421 -2.6588
rclavicle 3.57812e-015 -9.54166e-015
rhumerus -97.5416 67.6154 -130.675
rradius 83.2282
rwrist 12.3317
rhand -27.6995 12.1725
rfingers 7.12502
rthumb -1.09571 -17.8044
lclavicle 3.57812e-015 -9.54166e-015
lhumerus -72.4848 -57.6052 118.137
lradius 79.4654
lwrist -2.53145
lhand -13.6042 -15.4854
lfingers 7.12502
lthumb 12.5107 14.12
rfemur 1.65361 4.86973 16.5052
rtibia 20.5458
rfoot -15.5015 -17.7316
rtoes -7.13195
lfemur 2.34259 -6.43018 -12.3193
ltibia 17.3982
lfoot -15.6476 12.0953
ltoes 0.223131
275
root -33.6429 17.67 -0.660559 -63.363 88.5927 -58.4335
lowerback 9.34714 -1.61887 3.54956
upperback 4.11643 -1.54879 4.18914
thorax -0.944001 -0.674026 2.49654
lowerneck -3.87534 3.4955 -0.368008
upperneck 0.94406 4.95909 -7.87347
head 1.16828 2.40835 -2.31254
rclavicle 1.2921e-014 -3.18055e-015
rhumerus -97.244 67.38 -130.638
rradius 82.8386
rwrist 12.3851
rhand -27.9453 12.1919
rfingers 7.12502
rthumb -1.33312 -17.7836
lclavicle 1.2921e-014 -3.18055e-015
lhumerus -72.694 -57.8836 118.099
lradius 79.749
lwrist -2.48572
lhand -13.4172 -15.3587
lfingers 7.12502
lthumb 12.691 14.2357
rfemur 1.9416 4.6271 17.4647
rtibia 19.8469
rfoot -15.2097 -17.7257
rtoes -6.63834
lfemur 1.99092 -6.91398 -11.3853
ltibia 17.8871
lfoot -15.9995 12.329
ltoes 0.477979
276
root -33.6423 17.6713 -0.596798 -78.2022 88.0359 -73.3486
lowerback 9.2666 -1.47584 3.24487
upperback 4.12527 -1.40427 3.98794
thorax -0.891571 -0.607557 2.44087
lowerneck -3.88615 3.36762 -0.416122
upperneck 1.02852 4.74491 -6.81999
head 1.15135 2.3036 -1.96445
rclavicle -2.18663e-015 1.11319e-014
rhumerus -96.8901 67.147 -130.559
rradius 82.4399
rwrist 12.4404
rhand -28.2069 12.1895
rfingers 7.12502
rthumb -1.58573 -17.7843
lclavicle -2.18663e-015 1.11319e-014
lhumerus -72.9217 -58.1474 118.072
lradius 80.0465
lwrist -2.45664
lhand -13.2 -15.2291
lfingers 7.12502
lthumb 12.9004 14.3522
rfemur 2.23629 4.36063 18.4187
rtibia 19.1384
rfoot -14.9321 -17.6798
rtoes -6.07328
lfemur 1.64565 -7.34666 -10.4333
ltibia 18.3623
lfoot -16.364 12.5005
ltoes 0.775489
277
root -33.6409 17.6719 -0.533173 -86.1758 87.4003 -81.3945
lowerback 9.18731 -1.3375 2.93413
upperback 4.13046 -1.26482 3.78874
thorax -0.843702 -0.543609 2.39202
lowerneck -3.88447 3.23634 -0.464637
upperneck 1.10947 4.52772 -5.7438
head 1.13352 2.19977 -1.61433
rclavicle -3.18055e-015 -1.11319e-014
rhumerus -96.4793 66.915 -130.436
rradius 82.0392
rwrist 12.5141
rhand -28.3955 12.2354
rfingers 7.12502
rthumb -1.76789 -17.7371
lclavicle -3.18055e-015 -1.11319e-014
lhumerus -73.1646 -58.3998 118.055
lradius 80.3564
lwrist -2.43494
lhand -12.9643 -15.0884
lfingers 7.12502
lthumb 13.1276 14.4784
rfemur 2.53473 4.07169 19.37
rtibia 18.4218
rfoot -14.6623 -17.5949
rtoes -5.4288
lfemur 1.31022 -7.76312 -9.46708
ltibia 18.8198
lfoot -16.7145 12.646
ltoes 0.980842
278
root -33.6386 17.6718 -0.469937 -90.9696 86.7361 -86.2545
lowerback 9.10729 -1.20413 2.61402
upperback 4.13395 -1.13144 3.58735
thorax -0.797313 -0.4827 2.34747
lowerneck -3.87206 3.10365 -0.508549
upperneck 1.18639 4.31041 -4.6485
head 1.11556 2.09824 -1.26401
rclavicle -7.7526e-015 -3.65764e-014
rhumerus -96.0068 66.6808 -130.258
rradius 81.6383
rwrist 12.6144
rhand -28.5785 12.2951
rfingers 7.12502
rthumb -1.94465 -17.6758
lclavicle -7.7526e-015 -3.65764e-014
lhumerus -73.4168 -58.643 118.042
lradius 80.6805
lwrist -2.42447
lhand -12.7113 -14.9481
lfingers 7.12502
lthumb 13.3715 14.6028
rfemur 2.84042 3.74992 20.3078
rtibia 17.6958
rfoot -14.3973 -17.4731
rtoes -4.7792
lfemur 0.985613 -8.16526 -8.49796
ltibia 19.2615
lfoot -17.0573 12.766
ltoes 1.11405
279
root -33.6356 17.6707 -0.406961 -94.1022 86.0505 -89.4451
lowerback 9.0296 -1.07639 2.28867
upperback 4.13929 -1.00426 3.38823
thorax -0.750381 -0.424737 2.3095
lowerneck -3.85384 2.96844 -0.54539
upperneck 1.25517 4.09191 -3.54285
head 1.09765 1.99837 -0.916318
rclavicle 5.96354e-016 -3.10104e-014
rhumerus -95.4718 66.4499 -130.023
rradius 81.2452
rwrist 12.7517
rhand -28.7213 12.3902
rfingers 7.12502
rthumb -2.08254 -17.5793
lclavicle 5.96354e-016 -3.10104e-014
lhumerus -73.6671 -58.8761 118.024
lradius 81.0174
lwrist -2.42343
lhand -12.4624 -14.7963
lfingers 7.12502
lthumb 13.6114 14.7387
rfemur 3.15223 3.39855 21.2441
rtibia 16.9619
rfoot -14.1226 -17.3268
rtoes -4.17848
lfemur 0.675381 -8.57512 -7.52092
ltibia 19.6867
lfoot -17.3867 12.8869
ltoes 1.13896
